<?xml version="1.0" standalone="no"?><!DOCTYPE svg PUBLIC "-//W3C//DTD SVG 1.1//EN" "http://www.w3.org/Graphics/SVG/1.1/DTD/svg11.dtd"><svg t="1700194340160" class="icon" viewBox="0 0 1024 1024" version="1.1" xmlns="http://www.w3.org/2000/svg" p-id="5081" width="128" height="128" xmlns:xlink="http://www.w3.org/1999/xlink"><path d="M182.8 713.2c10 16.4 21.2 32 34 47.2L264 713.2H182.8zM445.6 446.8c29.6-29.6 74.8-35.2 110-16.4l28-28V148.4l11.6-11.6c-124.4-27.6-259.6 6.8-356 103.6-111.6 111.6-140 274.8-86 412.8H324l7.6-7.6 48.8-48.8 10.8-10.8 35.6-35.6c-15.6-34-9.2-75.6 18.8-103.6zM363.2 868l17.2-17.2v-168.8l-121.6 121.6c32 27.2 67.2 48.8 104.4 64.4zM869.6 370.8H700l-56.4 56.4-47.2 47.2c15.6 34.4 9.2 76-19.2 104.4-29.6 29.6-74.8 35.2-110 16.4l-27.2 27.2V876l-12.8 12.8c124.4 27.6 259.6-6.8 356-103.6 112.4-112 140.8-276 86.4-414.4z" fill="#FFD552" p-id="5082"></path><path d="M307.6 975.6l-9.6-10 105.6-105.6v-250.4h13.6v256.4z" fill="#4A555F" p-id="5083"></path><path d="M764 222c-31.6-27.6-66.8-49.2-104-64.4l-16.4 16.4v168.8L764 222zM806 264.4L760 310.8h79.6c-10-16-21.2-31.6-33.6-46.4zM488 536c12.8 12.8 34 12.8 46.8 0 12.8-12.8 12.8-34 0-47.2-12.8-12.8-34-12.8-46.8 0-12.8 13.2-12.8 34.4 0 47.2z" fill="#FFD552" p-id="5084"></path><path d="M511.6 927.6c-110.8 0-215.2-43.2-293.6-121.6C56 644.4 56 380.8 218 219.2c78.4-78.4 182.8-121.6 293.6-121.6 110.8 0 215.2 43.2 293.6 121.6 78.4 78.4 121.6 182.8 121.6 293.6s-43.2 215.2-121.6 293.6c-78.8 78-182.8 121.2-293.6 121.2z m0-816.4c-107.2 0-208 41.6-283.6 117.6-156.4 156.4-156.4 410.8 0 567.6 75.6 75.6 176.4 117.6 283.6 117.6 107.2 0 208-41.6 283.6-117.6 75.6-75.6 117.6-176.4 117.6-283.6 0-107.2-41.6-208-117.6-283.6-76-76-176.4-118-283.6-118z" fill="#4A555F" p-id="5085"></path><path d="M511.6 842.8c-88.4 0-171.2-34.4-233.6-96.8-62.4-62.4-96.8-145.2-96.8-233.6s34.4-171.2 96.8-233.6c62.4-62.4 145.2-96.8 233.6-96.8s171.2 34.4 233.6 96.8c128.8 128.8 128.8 338.4 0 467.2-62.4 62.8-145.6 96.8-233.6 96.8z m0-646.8c-84.4 0-164 32.8-224 92.8C228 348.4 194.8 428 194.8 512.4s32.8 164 92.8 224c59.6 59.6 139.2 92.8 224 92.8s164-32.8 224-92.8c123.6-123.6 123.6-324.4 0-447.6-60-60-139.6-92.8-224-92.8z" fill="#4A555F" p-id="5086"></path><path d="M563.2 474.8l-10-9.6 131.2-131.2h245.2l37.2-37.2 9.6 10-40.8 40.8h-245.2z" fill="#4A555F" p-id="5087"></path><path d="M620.4 414.4h-13.6V158l109.6-109.6 9.6 10L620.4 164zM910.2 108.292l9.9 9.9-227.684 227.684-9.9-9.9z" fill="#4A555F" p-id="5088"></path><path d="M934 128c-8.8 0-17.2-3.6-23.6-10a33.56 33.56 0 0 1 0-47.6c6.4-6.4 14.8-10 23.6-10s17.2 3.6 23.6 10c13.2 13.2 13.2 34.4 0 47.6-6.4 6.4-14.8 10-23.6 10z m0-53.2c-5.2 0-10.4 2-14 5.6-7.6 7.6-7.6 20 0 28 3.6 3.6 8.8 5.6 14 5.6 5.2 0 10.4-2 14-5.6 7.6-7.6 7.6-20 0-28-4-3.6-8.8-5.6-14-5.6zM990.4 316.4c-8.8 0-17.2-3.6-23.6-10a33.56 33.56 0 0 1 0-47.6c6.4-6.4 14.8-10 23.6-10s17.2 3.6 23.6 10c13.2 13.2 13.2 34.4 0 47.6-6 6.4-14.4 10-23.6 10z m0-53.2c-5.2 0-10.4 2-14 5.6-7.6 7.6-7.6 20 0 28 3.6 3.6 8.8 5.6 14 5.6 5.2 0 10.4-2 14-5.6 7.6-7.6 7.6-20 0-28-3.6-3.6-8.8-5.6-14-5.6zM740 68c-8.8 0-17.2-3.6-23.6-10a33.56 33.56 0 0 1 0-47.6C722.8 4 731.2 0.4 740 0.4s17.2 3.6 23.6 10c13.2 13.2 13.2 34.4 0 47.6-6.4 6.8-14.8 10-23.6 10z m0-53.2c-5.2 0-10.4 2-14 5.6-7.6 7.6-7.6 20 0 28 3.6 3.6 8.8 5.6 14 5.6s10.4-2 14-5.6c7.6-7.6 7.6-20 0-28-3.6-3.6-8.8-5.6-14-5.6zM511.6 582.8c-18.8 0-36.4-7.2-49.6-20.4-27.2-27.2-27.2-72 0-99.2 13.2-13.2 30.8-20.4 49.6-20.4s36.4 7.2 49.6 20.4c27.2 27.2 27.2 72 0 99.2-13.2 13.2-30.8 20.4-49.6 20.4z m0-126.4c-15.2 0-29.2 6-40 16.4-22 22-22 57.6 0 79.6 10.8 10.8 24.8 16.4 40 16.4s29.2-6 40-16.4c22-22 22-57.6 0-79.6-10.8-10.8-25.2-16.4-40-16.4z" fill="#4A555F" p-id="5089"></path><path d="M910.2 108.292l9.9 9.896-227.688 227.688-9.9-9.9zM57.2 727.2l-9.6-10 40.8-40.8h245.2l127.2-127.2 10 9.6-131.2 131.2H94.4z" fill="#4A555F" p-id="5090"></path><path d="M307.6 975.6l-9.6-10 105.6-105.6v-250.4h13.6v256.4zM331.876 678.38l9.9 9.9-227.688 227.688-9.9-9.9z" fill="#4A555F" p-id="5091"></path><path d="M90 963.2c-8.8 0-17.2-3.6-23.6-10a33.56 33.56 0 0 1 0-47.6c6.4-6.4 14.8-10 23.6-10s17.2 3.6 23.6 10c13.2 13.2 13.2 34.4 0 47.6-6 6.4-14.4 10-23.6 10z m0-53.2c-5.2 0-10.4 2-14 5.6-7.6 7.6-7.6 20 0 28 3.6 3.6 8.8 5.6 14 5.6 5.2 0 10.4-2 14-5.6 7.6-7.6 7.6-20 0-28-3.6-3.6-8.4-5.6-14-5.6z" fill="#4A555F" p-id="5092"></path><path d="M33.6 774.8c-8.8 0-17.2-3.6-23.6-10-6.4-6.4-10-14.8-10-23.6s3.6-17.2 10-23.6c6.4-6.4 14.8-10 23.6-10s17.2 3.6 23.6 10c6.4 6.4 10 14.8 10 23.6s-3.6 17.2-10 23.6c-6.4 6.4-14.8 10-23.6 10z m0-53.6c-5.2 0-10.4 2-14 5.6-3.6 3.6-5.6 8.8-5.6 14 0 5.2 2 10.4 5.6 14 3.6 3.6 8.8 5.6 14 5.6s10.4-2 14-5.6c3.6-3.6 5.6-8.8 5.6-14 0-5.2-2-10.4-5.6-14-4-3.2-8.8-5.6-14-5.6z" fill="#4A555F" p-id="5093"></path><path d="M284 1022.8c-8.8 0-17.2-3.6-23.6-10-6.4-6.4-10-14.8-10-23.6s3.6-17.2 10-23.6c6.4-6.4 14.8-10 23.6-10s17.2 3.6 23.6 10c6.4 6.4 10 14.8 10 23.6s-3.6 17.2-10 23.6c-6.4 6.8-14.8 10-23.6 10z m0-53.2c-5.2 0-10.4 2-14 5.6-3.6 3.6-5.6 8.8-5.6 14 0 5.2 2 10.4 5.6 14 3.6 3.6 8.8 5.6 14 5.6 5.2 0 10.4-2 14-5.6 3.6-3.6 5.6-8.8 5.6-14 0-5.2-2-10.4-5.6-14-3.6-3.6-8.8-5.6-14-5.6z" fill="#4A555F" p-id="5094"></path><path d="M113.668 915.748l-9.9-9.9 227.684-227.684 9.9 9.896z" fill="#4A555F" p-id="5095"></path><path d="M57.2 727.2l-9.6-10 40.8-40.8h245.2l127.2-127.2 10 9.6-131.2 131.2H94.4z" fill="#4A555F" p-id="5096"></path><path d="M113.668 915.748l-9.9-9.9 227.684-227.684 9.9 9.896z" fill="#4A555F" p-id="5097"></path></svg>